# xmcd
#
# Track frame offsets: 
#        150
#        19065
#        40160
#        67000
#        86197
#        91927
#        104100
#        113742
#        133872
#        145190
#        163097
#        181295
#        192550
#
# Disc length: 3343 seconds
#
# Revision: 9
# Processed by: cddbd v1.5.2PL0 Copyright (c) Steve Scherf et al.
# Submitted via: ExactAudioCopy v1.0b1
#
DISCID=be0d0d0d
DTITLE=Shuggie Otis - Inspiration Information 2001 Luaka Bop
DYEAR=1974
DGENRE=R&B
TTITLE0=Inspiration Information
TTITLE1=Island Letter
TTITLE2=Sparkle City
TTITLE3=Aht Uh Mi Hed
TTITLE4=Happy House
TTITLE5=Rainy Day
TTITLE6=XL-30
TTITLE7=Pling
TTITLE8=Not Available
TTITLE9=Strawberry Letter 23
TTITLE10=Sweet Thang
TTITLE11=Ice Cold Daydream
TTITLE12=Freedom Flight
EXTD=Original release 1974\nReissue 2001 YEAR: 1974
EXTT0=
EXTT1=
EXTT2=
EXTT3=
EXTT4=
EXTT5=
EXTT6=
EXTT7=
EXTT8=
EXTT9=Bonus track from the 1971 album "Freedom Flight"
EXTT10=Bonus track from the 1971 album "Freedom Flight"
EXTT11=Bonus track from the 1971 album "Freedom Flight"
EXTT12=Bonus track from the 1971 album "Freedom Flight"
PLAYORDER=
